<svg viewBox="0 0 19 22" fill="none" xmlns="http://www.w3.org/2000/svg">
    <path d="M18.875 9.53516H18.834C16.9473 9.53516 15.2246 8.96094 13.8301 7.93555V15.2773C13.8301 18.9688 10.8359 21.9219 7.14453 21.9219C3.45312 21.9219 0.5 18.9688 0.5 15.2773C0.5 11.5859 3.45312 8.5918 7.14453 8.5918C7.47266 8.5918 7.75977 8.63281 8.08789 8.67383V12.3652C7.75977 12.2422 7.47266 12.2012 7.14453 12.2012C5.46289 12.2012 4.06836 13.5957 4.06836 15.2773C4.06836 16.959 5.46289 18.3535 7.14453 18.3535C8.82617 18.3535 10.2207 16.959 10.2207 15.2773V0.921875H13.8301C13.8301 0.962891 13.8301 0.962891 13.8301 1.00391C13.8301 1.29102 13.8301 1.57812 13.9121 1.86523C14.1582 3.21875 14.9785 4.4082 16.127 5.14648C16.9062 5.67969 17.8496 5.9668 18.834 5.9668C18.834 5.9668 18.834 5.9668 18.875 5.9668V9.53516Z" fill="white"/>
</svg>
