<svg viewBox="0 0 22 18" fill="none" xmlns="http://www.w3.org/2000/svg">
    <path d="M18.9512 5.15625C18.9512 5.36133 18.9512 5.52539 18.9512 5.73047C18.9512 11.4316 14.6445 17.9531 6.72852 17.9531C4.26758 17.9531 2.01172 17.2559 0.125 16.0254C0.453125 16.0664 0.78125 16.1074 1.15039 16.1074C3.16016 16.1074 5.00586 15.4102 6.48242 14.2617C4.5957 14.2207 2.99609 12.9902 2.46289 11.2676C2.75 11.3086 2.99609 11.3496 3.2832 11.3496C3.65234 11.3496 4.0625 11.2676 4.39062 11.1855C2.42188 10.7754 0.945312 9.05273 0.945312 6.96094V6.91992C1.51953 7.24805 2.2168 7.41211 2.91406 7.45312C1.72461 6.67383 0.986328 5.36133 0.986328 3.88477C0.986328 3.06445 1.19141 2.32617 1.56055 1.71094C3.69336 4.29492 6.89258 6.01758 10.4609 6.22266C10.3789 5.89453 10.3379 5.56641 10.3379 5.23828C10.3379 2.85938 12.2656 0.931641 14.6445 0.931641C15.875 0.931641 16.9824 1.42383 17.8027 2.28516C18.7461 2.08008 19.6895 1.71094 20.5098 1.21875C20.1816 2.24414 19.5254 3.06445 18.623 3.59766C19.4844 3.51562 20.3457 3.26953 21.084 2.94141C20.5098 3.80273 19.7715 4.54102 18.9512 5.15625Z" fill="white"/>
</svg>
