<svg viewBox="0 0 23 17" fill="none" xmlns="http://www.w3.org/2000/svg">
    <path d="M22.2051 3.04883C22.6973 4.77148 22.6973 8.46289 22.6973 8.46289C22.6973 8.46289 22.6973 12.1133 22.2051 13.877C21.959 14.8613 21.1797 15.5996 20.2363 15.8457C18.4727 16.2969 11.5 16.2969 11.5 16.2969C11.5 16.2969 4.48633 16.2969 2.72266 15.8457C1.7793 15.5996 1 14.8613 0.753906 13.877C0.261719 12.1133 0.261719 8.46289 0.261719 8.46289C0.261719 8.46289 0.261719 4.77148 0.753906 3.04883C1 2.06445 1.7793 1.28516 2.72266 1.03906C4.48633 0.546875 11.5 0.546875 11.5 0.546875C11.5 0.546875 18.4727 0.546875 20.2363 1.03906C21.1797 1.28516 21.959 2.06445 22.2051 3.04883ZM9.20312 11.7852L15.0273 8.46289L9.20312 5.14062V11.7852Z" fill="white"/>
</svg>
